<?xml version="1.0" encoding="UTF-8" standalone="no"?>
<!-- Created with Inkscape (http://www.inkscape.org/) -->

<svg
   width="12.000001mm"
   height="10.400743mm"
   viewBox="0 0 12.000001 10.400743"
   version="1.1"
   id="svg396"
   inkscape:version="1.2 (dc2aedaf03, 2022-05-15)"
   sodipodi:docname="hamburger-icon.svg"
   xmlns:inkscape="http://www.inkscape.org/namespaces/inkscape"
   xmlns:sodipodi="http://sodipodi.sourceforge.net/DTD/sodipodi-0.dtd"
   xmlns="http://www.w3.org/2000/svg"
   xmlns:svg="http://www.w3.org/2000/svg">
  <sodipodi:namedview
     id="namedview398"
     pagecolor="#ffffff"
     bordercolor="#666666"
     borderopacity="1.0"
     inkscape:showpageshadow="2"
     inkscape:pageopacity="0"
     inkscape:pagecheckerboard="0"
     inkscape:deskcolor="#d1d1d1"
     inkscape:document-units="mm"
     showgrid="false"
     inkscape:zoom="8.2041846"
     inkscape:cx="39.06543"
     inkscape:cy="42.965879"
     inkscape:window-width="1920"
     inkscape:window-height="1001"
     inkscape:window-x="-9"
     inkscape:window-y="-9"
     inkscape:window-maximized="1"
     inkscape:current-layer="layer1" />
  <defs
     id="defs393" />
  <g
     inkscape:label="Layer 1"
     inkscape:groupmode="layer"
     id="layer1"
     transform="translate(-66.972973,-125.42125)">
    <rect
       style="fill:#000000;fill-opacity:1;stroke:#000000;stroke-width:0.938987;stroke-opacity:1"
       id="rect1400-5"
       width="11.061013"
       height="1.0610131"
       x="67.442467"
       y="128.29149"
       ry="0.53050655" />
    <rect
       style="fill:#000000;fill-opacity:1;stroke:#000000;stroke-width:0.938988;stroke-opacity:1"
       id="rect1400-3-1"
       width="11.061013"
       height="1.0610117"
       x="67.442467"
       y="131.29149"
       ry="0.53050584" />
    <rect
       style="fill:#000000;fill-opacity:1;stroke:#000000;stroke-width:0.938988;stroke-opacity:1"
       id="rect1400-9-5"
       width="11.061013"
       height="1.0610118"
       x="67.442467"
       y="134.29149"
       ry="0.5305059" />
    <path
       style="fill:#000000;stroke:#000000;stroke-width:0.027343px;stroke-linecap:butt;stroke-linejoin:miter;stroke-opacity:1"
       d="m 71.5017,125.44628 c 0,0 0.74555,-0.0447 1.05899,0.13677 0.31346,0.18147 0.41007,0.46662 0.41007,0.46662 0,0 0.19406,-0.54838 0.85056,-0.59004 0.65659,-0.0417 0.62159,-0.018 0.62159,-0.018 0,0 0.11487,0.47492 -0.19826,1.00818 -0.31328,0.53326 -1.1065,0.43992 -1.1065,0.43992 0,0 -0.0699,0.027 -0.0549,0.13677 0.015,0.10828 0.024,0.86871 0.0351,0.97986 0.006,0.0651 -0.23995,0.0432 -0.26005,-0.021 -0.021,-0.0633 0.0468,-0.54763 0.006,-1.00986 -0.003,-0.0399 0.06,-0.0801 -0.17006,-0.0801 -0.23005,0 -0.9032,-0.14667 -1.07984,-0.61991 -0.17666,-0.47324 -0.11187,-0.79627 -0.11337,-0.81319 -0.002,-0.018 0,-0.018 0,-0.018 z"
       id="path9584-2"
       sodipodi:nodetypes="cscscscssssssscc" />
  </g>
</svg>
